<?xml version="1.0" encoding="utf-8"?>
<!-- Generator: Adobe Illustrator 27.8.0, SVG Export Plug-In . SVG Version: 6.00 Build 0)  -->
<svg version="1.1" id="Layer_1" xmlns="http://www.w3.org/2000/svg" xmlns:xlink="http://www.w3.org/1999/xlink" x="0px" y="0px"
	 viewBox="0 0 1080 1080" style="enable-background:new 0 0 1080 1080;" xml:space="preserve">
<style type="text/css">
	.st0{fill:#263070;}
	.st1{fill:#FFFFFF;}
</style>
<path class="st0" d="M972.2,540C971.1,783,774.5,969,546,972.1C306.5,975.4,105.7,780.5,107.8,536
	c2.1-235.3,193.9-428.3,433.3-428.1C778.1,108,972,302.5,972.2,540z M523.3,961.6c63.4,0,113.7-8.9,157.1-25.5
	c105-40.3,184-110.3,235.4-210.1c44.9-87,57.6-179.1,35.4-274.9c-23-99.7-75.8-181.3-156.8-243.2C687,125.8,566.8,97.9,435,132.9
	c-100.6,26.6-180.8,84.6-239.9,169.8c-73.7,106.2-95.9,222.7-60.8,348.1c24.1,86.1,72.4,157.1,141.4,213.8
	C352.4,927.6,440.5,960.2,523.3,961.6z"/>
<path class="st1" d="M523.3,961.6c-82.8-1.4-170.9-34-247.6-97c-69-56.7-117.3-127.7-141.4-213.8c-35.1-125.4-13-241.9,60.8-348.1
	c59.1-85.2,139.3-143.2,239.9-169.8c131.8-34.9,252.1-7.1,359.4,75.1c81,62,133.8,143.5,156.8,243.2c22.1,95.8,9.4,187.9-35.4,274.9
	c-51.5,99.8-130.4,169.8-235.4,210.1C637,952.7,586.7,961.6,523.3,961.6z M869.5,540.9c1.3-182.5-150.1-334.7-337.1-330.7
	C359.5,213.9,210.7,355,210,539.5c-0.7,181,147.6,330.1,327.9,330.2C721.3,869.9,869.6,722.8,869.5,540.9z M896.2,685.8
	c-4.2-19.7-7.9-37.2-12-56.7c-1.3,3.8-2,5.8-2.7,7.7c-9.8,28.3-19.5,56.6-29.5,84.8c-2.6,7.2-4.9,15.7-16.3,11.4
	c0,13.3,0,25.6,0,39.3c10.2-8,19.2-15.1,29.1-23c-10.1-6.3-6-13.2-3-20.8c6.2-15.8,11.5-31.9,17.1-48c1.1-3,1.7-6.2,2.5-9.2
	c0.5,0.1,0.9,0.2,1.4,0.2c2.7,14,5.4,28,8.1,42.1c21.3-34.9,36.5-71.1,40.9-111.4c-2.3-0.7-3.8-1.4-5.3-1.7c-1-0.2-2.1,0-3.5,0
	C918.4,629.5,911.5,657.7,896.2,685.8z M184.5,683.2c-16-25.8-22.6-54.2-27.7-83.2c-2.5,0.5-3.8,0.7-5.1,1c-1.2,0.4-2.4,1-3.7,1.5
	c5.3,40,19.5,76.3,40.5,112.9c3.3-16.3,6.2-30.2,9-44.2c6.8,19.1,13,37.5,19.8,55.6c3,8,8.8,15.6-1.9,22.7
	c10.1,7.9,19.1,14.9,29,22.6c0-13.8,0-26.2,0-39.5c-9.7,4-12.8-1.7-15.2-8.6c-10.1-28.8-20.1-57.5-30.2-86.3
	c-0.8-2.2-1.6-4.5-3.1-8.7C191.8,648.6,188.1,665.9,184.5,683.2z M639.9,150.3c-2.8,17.9-5.6,35.2-8,52.6c-0.2,1.6,1.4,4.7,2.5,4.9
	c1.9,0.4,5.1-0.4,6.1-1.8c2.3-3.2,3.5-7.3,5.5-10.8c4.1-7.5,8.4-14.9,12.6-22.4c0.8,11.7-0.4,22.4-1.2,33.2
	c-0.2,2.4,1.4,4.9,2.1,7.4c2.2-1.5,5.3-2.5,6.5-4.6c9-14.6,17.7-29.4,26.8-44.6c-3.6-4-7.2-3-10.6,2.3c-5.2,8-10.7,15.8-16,23.7
	c-0.3-8.2,1-15.9,1.5-23.6c0.1-2.3-2.1-4.7-3.2-7c-2,1.3-4.6,2.1-5.8,3.9c-5.6,8.5-10.8,17.2-16.1,25.8c0.3-10.7,2-20.9,4.1-31
	C648,152.6,646.6,149.7,639.9,150.3z M458,195c0.3-1.1,0.6-2.1,0.8-3.2c-7.1-4.3-14.2-8.7-21.4-12.9c-3.9-2.3-5.1-5.1-3.4-9.4
	c2.9-7.4,5.5-15,8.3-22.4c-5.5-3.3-7.5-0.4-9.1,4.1c-2.9,8.6-6,17.2-9.1,25.8c-0.5-0.2-1.1-0.3-1.6-0.5c-1.9-8.4-3.7-16.7-5.8-25.8
	c-2.5,0.6-5,1.2-7.6,1.8c4.7,19,9.2,37.3,13.9,56.2c3.1-0.6,5.5-1.1,8-1.6c-1.1-8.2-7.3-15.7-0.8-22.8
	C440.7,185.7,446.9,198,458,195z M598.7,937c15.5,10.1,37.3-0.9,38.2-19.1c0.6-12.7-4.1-24-13.4-32.7c-10.3-9.5-24.1-5.6-28.1,7.7
	c-0.8,2.6-1.3,5.2-1.7,7.9c-0.8,7-0.5,13.8,6.1,18.1c7,4.6,14.6,5.3,22.3,1.3c2.3-1.2,4.5-2.7,6.7-4.1c0.7,0.4,1.5,0.9,2.2,1.3
	c-2.3,5.1-3.8,11-7.2,15.2C617.2,940.8,607.5,937,598.7,937z M478.4,937c13,11.4,31.4,10,40-2.1c8.5-11.9,4.6-39.9-6.6-46.8
	c-1.1-0.7-2.4-1.2-3.7-1.6c-11.8-3.9-20.4,2.1-24.8,17.4c-3.3,11.2,0.7,19.7,12,22.5c5.8,1.5,12.3,0.3,20.2,0.3
	c-3.4,4.4-5.9,9.2-9.8,12.3C496.3,946.4,487.4,938.7,478.4,937z M553.3,941.2c2.4-3.9,3.9-6.6,5.6-9.2c5.8-9,12.1-17.8,17.4-27.2
	c2.8-5,3.3-11-2.3-15.3c-6-4.7-17.7-4.4-24.5,0.3c-5.9,4.2-8.8,13.5-6.2,21.1c0.5,1.4,2.4,2.4,3.6,3.5c1-1.4,2.6-2.6,2.9-4.1
	c0.5-2.3,0.1-4.8,0.2-7.3c0.2-7,4.2-10.9,10.4-12.8c6.5-2,10.6,0.8,9.5,7.5c-0.8,5.2-3,10.4-5.7,14.9c-5.3,8.7-11.7,16.8-17.2,25.5
	c-3.4,5.3-1.3,9.8,4.4,9.4c8.6-0.7,17-2.8,25.5-4.2c-0.1-0.7-0.2-1.4-0.2-2.1C569.5,941.2,562.2,941.2,553.3,941.2z M225.1,358.3
	c-0.2,0.6-0.4,1.3-0.6,1.9c-11.7-3.1-23.6-5.4-34.9-9.6c-7.7-2.8-8.6,1.1-10.3,6.5c16.2,4.1,32,7.8,47.5,12.2
	c6.1,1.7,9.9,0.3,12-5.3c-11.7-13-23.1-25.9-34.8-38.5c-1.5-1.6-4.6-1.6-6.9-2.4c0.6,2.2,0.6,5,1.9,6.6
	C207.5,339.4,216.3,348.8,225.1,358.3z M279.7,295c0.2,6.6,7.8,10.5,5.6,17.5c2.6,0.5,6.2,2.2,7.5,1.1c6.8-5.5,13.5-11.4,19.3-18
	c1.9-2.2,1-6.8,1.3-10.3c-3.5,0.1-7.6-0.8-10.5,0.7c-5.4,2.7-10.2,6.7-17.1,11.5c1.3-4.9,1.8-8,2.9-10.7c2.5-6.1,1.4-11.9-3.7-15.2
	c-5.6-3.6-9.1-7.3-7.4-14.9c-2.6,1.8-4,3.7-5.3,5.7c-1.8,2.6-3,6.1-5.4,7.7c-5.5,3.6-5.1,7.8-2.7,12.6
	C267.6,289,271.5,294.8,279.7,295z M390.8,226.6c2.5,0,4.9,0,7.4,0c-0.3-2.2-0.2-4.5-1-6.4c-6.9-15.2-14-30.3-21.5-46.3
	c-2.1,0.6-4.7,1.3-7.9,2.2c3,6.5,5.6,11.9,8.2,17.4c-12,5.7-14.1,15.3-7,29.1C373.4,231.2,378.1,231.7,390.8,226.6z M888.7,343.7
	c-1.7-2.5-3.3-4.9-4.3-6.3c-14.2,8-27.1,15.4-40.1,22.5c-5,2.7-5.5,5.2-0.7,8.5c1.9-1.1,3.6-2,5.2-2.9c1.8-0.9,3.6-1.8,5.8-3
	c-3.8,18.4-3.8,18.4,0.5,20.4c2.8-6,4.1-14.7,8.7-17.2c5-2.7,13.2,0.3,20,0.9c-0.8-3-0.8-3-20.2-9.8
	C872.5,352.2,880.2,348.2,888.7,343.7z M826,258.1c-13.3,12.7-25.6,24.4-38.9,37.1c4.2,2.7,7.9,6,12.1,7.6c3.9,1.4,9.1,2.7,12.5,1.2
	c13-6,15.1-16.3,6.9-27.2C819.7,270.1,833.7,269.2,826,258.1z M575.9,193.4c0.3-3.9,0.4-7.7,0.9-11.4c2.4-17.6,2-18.2-15.5-22.3
	c-0.5-0.1-0.8-0.6-2-1.6c1.6-5.1,3.2-10.6,5.1-16.7c-2.9-0.5-5.4-1-8.6-1.6c-2.2,17.5-4.3,34.2-6.5,51c5.8,3.2,8,0.8,8.2-5
	c0.1-4.6,0.4-9.2,0.8-13.8c0.4-4.9,3-9,8.1-7.7c2.2,0.6,4.4,5.6,4.5,8.7c0.1,5.9-1.3,11.8-1.9,17.7c-0.1,0.7,0.4,1.5,0.7,2.6
	C571.6,193.4,573.6,193.4,575.9,193.4z M277.4,236.6c10.4,15,20.1,28.8,30.1,43.3c2-1.7,3.9-3.4,5.8-5c-4.6-6-8.8-11.3-12.8-16.7
	c-3-3.9-2.6-8.3,1.5-10.3c1.9-1,6.5,0.8,8.4,2.8c3.7,3.8,6.6,8.5,9.4,13.1c3.1,5.1,5.5,3.8,8.3-0.4c-2.2-3.1-4.4-6.1-6.6-9.2
	c-10.6-14.9-11.2-15.1-27.2-6c-0.3,0.2-1-0.2-2.2-0.4c-2.1-4.7-4.4-9.7-7.1-15.6C282.5,233.6,280.1,235,277.4,236.6z M245.7,294.8
	c5.9,4.8,10.9,9.1,16.2,13.1c4.6,3.4,4.7,7.6,1.2,10.9c-1.5,1.4-6.6,0.7-8.8-0.9c-5.5-4.1-10.2-9.2-15.6-14.3
	c-1.6,2.2-2.9,4.1-4.5,6.4c6.3,5.3,12.1,10.5,18.3,15.1c1.8,1.4,5.7,2.1,7.4,1.1c6.5-3.8,12.4-8.5,18.5-12.9c0.2-0.2,0-1,0-0.9
	c-8.9-7.5-17.5-14.7-26.7-22.5C250.5,291,248.5,292.6,245.7,294.8z M501.7,174.1c-3.3,0.7-6.9,0.5-8.9,2.1
	c-3.1,2.7-5.1,6.7-7.6,10.1c3.4,1.6,6.7,3.3,10.2,4.6c3.1,1.2,6.4,2.4,9.6,2.4c2,0,5.7-2.1,5.7-3.1c-0.6-8.9-1.5-17.8-3.1-26.5
	c-1.1-6-9.5-9.5-16.7-7.1c-6.3,2-6.2,7.6-5.6,12.7c0.1,1.2,2.3,2.3,3.6,3.4c1-1.3,2.2-2.5,2.9-3.9c1.6-3,2.9-6,4.3-9.1
	c1.8,3.2,3.8,6.4,5.5,9.8C502.1,170.6,501.7,172.2,501.7,174.1z M823.4,336.5c7.8-6.2,14.5-10.5,20-16c5.6-5.6,2.9-11.9-0.8-17.6
	c-3.7-5.8-8.8-3.3-12.9-1.4c-5.2,2.5-10.8,5.6-14.3,9.9c-2.4,3-2.7,9-1.5,12.9C815,328.3,819.2,331.3,823.4,336.5z M449.7,938.3
	c1.4-6.1,2.8-12.1,4.3-18c2.9-11.2,6-22.4,8.6-33.6c0.5-2.1-1.3-4.7-2-7c-1.8,1.1-4,1.8-5.4,3.3c-2.9,3.1-5.5,6.6-8.1,10
	c-0.4,0.5-0.4,1.4-0.6,2.2c1.9,0.3,3.6,0.6,5.7,0.9c-2.9,11.4-5.3,22.4-8.5,33.2C441.9,935.2,443.4,937.9,449.7,938.3z M334.5,245.9
	c4.2-3.3,8.3-6.5,13.5-10.6c-4.1-4.7-7.2-9.6-11.5-12.8c-2.3-1.7-7.2-1.3-10.1,0c-2.6,1.2-6.4,5.7-5.8,7.3c3,7.9,6.7,15.6,11.3,22.7
	c2.9,4.5,7.8,3.3,12.2,0.6c7.6-4.7,9.1-6.8,8.2-13C340,251.5,340,251.5,334.5,245.9z M689.3,214.2c4.2,1.6,7.6,3.5,11.1,4
	c2.2,0.4,6-0.5,6.8-2c2-4,4-8.7,3.6-12.9c-0.3-3.1-3.6-7.1-6.6-8.6c-2.6-1.3-8.1-0.7-9.8,1.2c-4.4,4.9-7.9,10.8-10.8,16.7
	c-2.2,4.6-1.8,9.5,3.5,12.6c5.7,3.5,11.4,6.3,18.8,2C700.3,222.4,686.3,230.3,689.3,214.2z M759.1,256.4c2.8,1.9,5,3,6.6,4.7
	c5.7,5.8,10,4.6,13.6-2.2c0.7-1.4,1.8-2.7,2.6-4.1c2.9-5.2,1.8-9.4-2.6-13.6c-4.5-4.3-8.6-3.7-12.8-0.2c-3.7,3.1-8.3,5.7-10.6,9.7
	c-2.3,4-4.7,10.6-2.9,13.7c3.3,5.8,9.1,11.2,18.4,8.4C766.8,267.4,752.3,270.8,759.1,256.4z M731.9,211.5c0.8,0.7,1.6,1.5,2.4,2.2
	c-1.1,2.5-2.5,5-3.2,7.6c-0.3,1.2,0.5,3.1,1.4,4.1c0.5,0.5,3.2,0.1,3.4-0.3c1.3-4,4.3-9.5,2.7-11.9c-2.6-4.1-6.7-10-13.7-6.6
	c-9,4.4-11.4,15-5.5,23c1.4,1.9,2.3,4.1,3.5,6.2c-0.6,0.5-1.2,1-1.7,1.5c-2.4-1.4-4.7-2.9-7.1-4.4c-2-1.3-4-2.6-6.1-4
	c-0.6,0.8-1.1,1.7-1.7,2.5c3.1,2.2,5.9,5.2,9.3,6.5c3.9,1.5,10.2,3.5,12.3,1.7c4.8-4.3-1.7-7.5-3.3-11.4c-1.2-2.9-2.2-7-1-9.4
	C725.2,215.9,729,213.9,731.9,211.5z M543.2,184.2c-0.4-0.6-0.8-1.3-1.2-1.9c-2.2,1.2-4.3,2.9-6.7,3.6c-2.3,0.6-5.7,1.2-7.3,0
	c-6-4.4-2.6-23,5.6-26.7c0.5,3.4,0.6,6.5,1.4,9.5c0.4,1.4,2.2,2.5,3.4,3.7c1.1-1.5,3-3,3.1-4.5c0.6-7.7-2.9-11.6-10.2-12.8
	c-7.6-1.2-11.2,2-11.8,9.3c-0.4,4.3-0.9,8.6-1,12.9c-0.1,5.9,1.9,10.8,8.2,12.4C533.1,191.1,539.2,190.5,543.2,184.2z M761.8,212.2
	c-4.4,3.2-8.3,6-12,8.7c-1,3.1-1.7,6.8-3.4,10c-2.4,4.5-5.4,8.8-8.7,12.7c-3.9,4.6-2.6,6.9,2.8,8.7c5.8-8.1,11.4-16,16.9-23.7
	c3.4,1.4,5.7,2.3,8,3.3c0.4-0.5,0.8-1,1.3-1.5c-1.8-2.2-3.6-4.4-5.6-6.8c1.9-2.2,3.8-4.3,6-6.9C764.8,214.9,763.1,213.4,761.8,212.2
	z M593.9,147.7c-2.4,5.4-4.4,9.6-6.4,14.1c6.6,9.1-1.9,19.9,0.3,30.6c4.2,2.1,6.4,1.4,6.9-4.2c0.6-8,2-15.9,3-23.6
	c3.5-0.6,6.2-1,8.8-1.5c0-0.5,0-1.1,0-1.6c-2.5-1-5-1.9-7.8-3c0.7-3.3,1.3-6.1,2-9.3C598.1,148.6,595.9,148.1,593.9,147.7z
	 M210.9,314.7c13.3,10.1,26.1,19.8,39.4,29.8c1.5-1.6,3-3.3,4.6-5c-13-10.1-25.4-19.8-38.4-29.9
	C215.1,310.9,213.2,312.6,210.9,314.7z M797.1,255c-7.6,7.5-14.1,14.4-21.1,20.6c-5.1,4.5-3,6.8,3.7,11c4.8-6.3,9.6-12.6,14.4-18.9
	c2.7,4,4.3,6.3,5.9,8.6c0.8-0.3,1.6-0.7,2.4-1C799,269.2,804.7,261.1,797.1,255z M830.9,349.9c7.4-4.5,14.1-8.6,20.4-12.4
	c2,4.1,3.2,6.5,4.4,9c1-0.3,2-0.5,3-0.8c-3.9-6.7,6.2-13.3-1-20.2c-10.2,6.1-20,11.9-30.1,18C828.8,345.7,829.7,347.5,830.9,349.9z
	 M468.8,173.5c4.8,0.3,7.3,0.5,9.8,0.7c0.3-0.9,0.5-1.8,0.8-2.7c-7.2-0.5-9.2-11.4-18.6-8c1.2,10.4,2.3,20.2,3.4,30.1
	c0.6,5.9,3.9,5.2,7.9,3.5C471.1,189.3,470,181.8,468.8,173.5z M344.9,209.9c5.2,10.2,10,19.8,14.9,29.6c4.4-0.5,7.1-1.5,4.2-7.1
	c-4.3-8.3-7.9-16.9-12.1-25.9C349.6,207.7,347.3,208.8,344.9,209.9z M350.7,199.3c-2.9-2.3-5.1-5.1-6-4.7c-1.9,0.8-3.8,3.1-4.4,5.1
	c-0.2,0.9,2.7,3.7,4.4,3.8C346.2,203.7,347.9,201.4,350.7,199.3z"/>
<g>
	<path class="st0" d="M869.5,540.9c0.1,181.9-148.3,329-331.6,328.8C357.6,869.6,209.3,720.5,210,539.5
		c0.7-184.5,149.5-325.6,322.5-329.3C719.4,206.3,870.9,358.4,869.5,540.9z M788.4,733.6c49.6-42.9,87.4-191.5,63.3-248.4
		c-3.3,3.7-6.2,7.1-9.3,10.3c-1.4,1.4-3.4,3.4-4.9,3.2c-7.2-0.9-14.5-1.9-21.4-3.8c-12.9-3.7-23.8-1.4-33.1,9.3
		c-10.1-11-20.4-21.7-30.1-32.9c-3.6-4.2-6.6-5-11.7-2.8c-20.7,8.5-41.6,16.7-62.6,24.8c-4.7,1.8-6.3,4.4-6.8,9.4
		c-1.5,15.6-3.7,31.2-5.4,44.8c-11.8-2.5-22.2-6.2-32.6-6.4c-11.1-0.3-22.5,2.1-29.7,11.7c-11.9-5.7-23.2-11.5-34.8-16.4
		c-12.2-5.2-14.8-4.2-22.2,6.9c-21.4,31.6-42.6,63.3-63.9,94.9c-1.5,2.2-3.1,4.3-4.1,5.6c0-23.9-0.2-47.6,0.2-71.4
		c0.1-3.7,2.3-8,4.8-10.9c5.4-6.3,4.9-11.9-2.6-15.6c-2.6-1.3-6.2-1.3-8.2-3.2c-13.7-12.7-30.8-10.2-47-10.2
		c-12.1,0-16.3,7.1-14.1,19.2c0.8,4.4,0.9,9,1.3,13.5c-6.3-15-12.2-29.6-4.3-45.9c4.9-10.2,3.5-10.9-7.2-17.3
		c1.9-2.2,3.9-4.4,5.7-6.7c27.3-34.9,59.8-64,97.3-87.4c7.5-4.7,7.9-9.8,4.8-17.7c-11.4,2.1-22.9,4.1-34.1,6.6
		c-1.5,0.3-3.2,3.8-3.3,5.9c-1,18.2-4.6,23-22,28.1c-4.6,1.4-9.5,2.1-14.2,3.2c-8.5,1.9-14.5-1.1-19-8.6c-11-18.2-14.9-38.1-15-59
		c-0.1-22,2.3-23.7,24.1-26.1c17.2-1.9,30.4,2,37.6,19.1c0.7,1.7,3.7,3.6,5.3,3.4c12.7-1.8,25.4-4.2,38.4-6.4
		c-1-10.4-2.2-19.8-2.6-29.2c-0.2-5.4-2.3-7.4-7.4-8.5c-24-5.2-48-10.7-71.9-16.5c-4.3-1-6.9-0.4-9.7,2.9
		c-29.4,34.6-62.5,65.1-100.3,90.5c-4,2.7-5,5.7-4.4,10.2c3.4,22.7,6.7,45.5,9.7,68.3c0.6,4.9,2.6,6.9,7.3,7.9
		c8.9,2,17.6,4.7,26.6,7.1c-0.6,7-1.1,13.2-1.7,20c-9.8-2.4-17.9-4.3-26-6.5c-4.4-1.2-7.7-0.6-10.4,3.6c-3.1,4.8-7,9.2-10.7,14.1
		c-2.5-12.2-4.7-23.6-7.4-34.9c-0.9-3.7-2.8-6.7,1.3-10c1.2-1,1.2-5.6,0-6.9c-4.6-5-9.2-10.7-15-13.6c-14.2-7.1-29.7-9.7-45.6-6.6
		c-2,0.4-3.6,3-5.3,4.6c2.4,1.6,3.4,1.5,4.4,1.4c13.7-2.6,26.8,0.5,39.7,4.1c4.6,1.3,8.3,3.4,3.3,9c-1.3,1.5-1.3,4.8-0.9,7
		c1.9,9.5,5.3,18.9,6,28.4c3.6,48.8,6.7,97.7,9.7,146.5c1.1,18.2,1.6,36.4,2.4,54.7c3.9-7.3,5.9-15,8-22.6
		c8.8-31.8,17.1-63.7,26.6-95.3c9.4-31.4,20.1-62.4,30.7-94.8c6.8,1.5,15.1,3,23.3,5.1c5.9,1.6,7.7,5.1,5.4,11.6
		c-13.3,38.6-26.8,77.1-39.1,116c-11.7,37.1-22.1,74.6-32.7,112c-1.9,6.7-2.4,13.8-3.4,20.7c-0.3,2.4-0.1,4.8-0.1,7.2
		c2.1-1.8,4.4-3.4,6-5.5c1-1.4,1-3.6,1.4-5.4c1.9-10.4,2.8-21,5.8-31c15.5-51.2,31.2-102.4,47.4-153.4c6.7-21.3,14.7-42.2,22.1-63.2
		c10,3.2,10,3.4,5.7,16.1c-17.6,52.3-35.8,104.3-52.3,156.9c-8.3,26.5-13.2,53.9-20.1,80.9c-1.1,4.5-4.3,8.4-6.5,12.6
		c6.8-0.5,8.3-5.7,9.5-11.9c3.3-18,6.9-35.9,10.4-54.2c14.9,1.7,28.1,2.7,41.1,4.9c9,1.5,16.5,1.4,21.1-7.8c0.1-0.2,0.9-0.1,1.6-0.2
		c0,15.1,0.2,30.2,0,45.2c-0.4,24.9-1.3,49.7-1.8,74.6c-0.1,6.3,0.2,6.3,6.2,7.3c-0.1-2.2-0.3-4.3-0.3-6.4c0.8-28.7,1.7-57.3,2.3-86
		c0.9-43.5,1.8-87.1,2.1-130.6c0.2-19.7-0.8-39.4-1.4-59.1c-0.2-4.8,1.3-9,6-8.8c12.9,0.5,25.8,1.4,38.5,3.6c6.4,1.1,6.3,5.7,2.3,11
		c-2.7,3.5-5,8.2-5.2,12.5c-1.8,37.3-3,74.6-4.4,111.9c-0.1,3.9,0,7.7,0,14c10.2-15.3,18.9-28.6,27.8-41.8
		c23.2-34.6,46.4-69.2,69.7-103.7c2.6-3.8,5-8.5,10.8-6.1c9.2,3.9,18.4,7.9,27.3,12.4c4.6,2.3,4.9,5.9,0.6,9.6
		c-4.7,4-9.8,7.9-13.3,12.9c-21.5,30.2-43,60.3-63.6,91.1c-9.4,14.1-9.3,16.6,2,28.4c30.2,31.7,61.3,62.4,91.8,93.9
		c2.8,2.9,5.2,9.2,3.9,12.4c-5.9,14.7-25.4,17.9-36.4,6.8c-19.5-19.5-39.1-39-58.7-58.4c-11.5-11.4-23.2-22.6-35.4-34.4
		c-6.5,9.8-12.4,19.2-18.8,28.2c-4.5,6.2-6.4,12.9-6.1,20.4c0.2,5.1-0.5,10.3-0.2,15.4c1,15.8,2,31.7,3.5,47.4
		c0.9,9.4-1,11.3-9.6,10.1c-6-0.8-12.2-0.2-19.5-0.2c49.3,31.7,197.4,25.7,241.7-10.2c-15.1-4.6-29.1-8.8-43-13.1
		c6.2-10.5,6.1-11.7-4-24.2c5.1-8.6,10.2-17.2,16.7-28.1c2.3,12.8,4.3,23,5.9,33.3c2.3,14.5,9.9,20,24.5,17.2
		c4.8-0.9,9.5-2.2,14.3-3c14.4-2.4,18.9-7.3,19.7-22c0.8-15.1,1.2-30.3,2.1-45.4c0.9-15.1,2.3-30.2,3.6-45.3
		c0.4-4.3,1.3-8.1,8.3-6.8c4.7,23.9,9.4,48,14.3,72c1.1,5.5-1.3,12.9,6,15.6c8.1,3,13.1-2.8,18.1-7.8c1.4-1.4,2.6-2.9,3.7-4.2
		c-6.6,2.3-13.1,4.6-19.5,6.8c-11.8-59.3-23.2-116.6-34.6-174.4c-0.6,1.5-1.3,2.7-1.5,4c-9.1,50-18.2,100-19.1,151.1
		c-0.2,13.5-1.1,27-2.4,40.5c-0.8,8.6-8.7,13.6-19.2,13.5c-8.4-0.1-10.9-5.4-11.8-12.6c-1-7.2-2.6-14.4-3.8-21.5
		c-8.5-49-17-98-25.3-147c-4-23.6-7.6-47.3-11.7-72.7c4.2-1.2,9.9-3.2,15.8-4.4c12.1-2.4,14.6-0.5,17.7,11.5c0.5,2.1,0.8,4.2,1,6.4
		c6.5,53.4,12.9,106.8,19.4,160.2c0.3,2.7,1,5.4,1.4,8.1c1.8-2.5,2-4.9,2.2-7.2c2.4-22.8,3.8-45.9,7.5-68.5
		c5.9-35.7,13.2-71.2,20.4-106.7c0.6-3.1,4.5-6.7,7.7-7.8c3.8-1.4,8.5-0.4,12.8-0.4c7.6,0.1,10.5,4,11.3,11.5
		c3.7,33.3,7.8,66.6,12,99.9c1.1,8.8,2.8,17.6,3.9,24.3c13.3-53.7,26.7-108.8,40.5-163.8c3.9-15.6,20.7-21.5,34.2-12.3
		c1.5,1,2.4,5,1.7,6.8c-3.9,9.7-9.4,18.9-12.7,28.7c-20.5,61.3-32.9,124.3-38.8,188.6c-0.9,9.7-2.1,19.4-3.1,29.1
		c0.9,0.3,1.8,0.6,2.7,0.8c1.6-3.7,4-7.2,4.7-11c1.6-9.9,2.8-19.8,3.6-29.8c4.9-60.5,18.4-119.1,37-176.6
		c2.7-8.4,7.1-16.3,10.4-24.5c1.9-4.7,3.1-9.6,4.9-15.1c-0.3-0.1,1.2,0.3,2.6,0.8c8.3,3.1,8.6,4.4,4.1,11.8
		c-3,5.1-5.5,10.6-7.4,16.2c-20.1,58.5-34.2,118.3-39.9,180.1C790.2,716.7,789.3,724.6,788.4,733.6z M536.2,385.9
		c-1.3,11.2-0.9,12.6,5.3,14.9c42.9,16.2,81.6,39.5,116.7,68.9c2.1,1.8,6.6,2.9,9,1.9c22.9-8.9,45.7-18.2,68.3-27.8
		c2.1-0.9,4.5-4.8,4.4-7.1c-1.9-25.3-4.1-50.7-6.7-75.9c-0.3-2.6-2.7-6.1-5.1-7.1c-42-18.6-81.5-41.1-117.6-69.6
		c-2.1-1.7-6.7-2.1-9.2-1c-22.6,10.3-45.1,21-67.4,31.8c-2,1-4.7,3.7-4.6,5.6c0.5,10.7,1.8,21.3,2.8,32.2
		c17.5-1.9,33.8-3.7,49.9-5.5c0.4-1.5,0.7-2.3,0.8-3c4.5-26.7,9.2-30,35.9-30.9c13.3-0.5,20.9,5.5,25.7,16.6
		c9.6,21.8,10.9,44.4,4.9,67.3c-0.9,3.5-4.8,7.8-8.2,8.7c-28.9,7.8-36.7,6.1-51.1-19.7c-0.5-0.9-0.6-2.3-1.4-2.9
		c-1.3-1.1-3-2.7-4.4-2.6C568.1,382.3,552,384.2,536.2,385.9z M803.5,366.4c-31.9-65-163.4-147.3-225.3-141c0.9,1.8,1.5,3.7,2.7,5
		c12.8,13.5,24.4,28.5,38.8,39.9c53.6,42.3,114.6,71.2,178.2,95.1C799.6,366,801.4,366,803.5,366.4z M452.6,236.6
		c-58.4,0.4-184.9,109.8-200.2,172.4c3.4-0.9,6.8-1.2,9.5-2.7c14.4-7.4,29.4-13.9,42.8-22.9c45.1-30.6,82.9-69.3,118.3-110.3
		C433,261.5,442.3,249.4,452.6,236.6z M224.8,513.3c-9.3,63.8,20.5,175.2,51.3,198.7c-0.1-2.4-0.1-4.6-0.3-6.7
		c-4.9-36.4-10.4-72.7-14.6-109.2c-4.8-41.7-10.9-83-26-122.4c-1-2.5-1.9-5-2.8-7.5c-0.9,0.2-1.9,0.5-2.8,0.7
		c0.5,4.8,0.4,9.8,1.6,14.4c3,10.9,7,21.6,9.9,32.5c3.4,12.9,6.1,26.1,9.1,39.1c-0.6,0.1-1.2,0.3-1.8,0.4
		C240.5,540,232.7,526.7,224.8,513.3z M600.4,325c4.7,15.8,9.6,32,13.8,46.3C615.2,352.2,609.7,333.7,600.4,325z"/>
</g>
<path class="st0" d="M896.2,685.8c15.2-28.1,22.1-56.3,26.9-85.3c1.5,0,2.5-0.2,3.5,0c1.5,0.3,3,0.9,5.3,1.7
	c-4.4,40.3-19.6,76.5-40.9,111.4c-2.7-14-5.4-28-8.1-42.1c-0.5-0.1-0.9-0.2-1.4-0.2c-0.8,3.1-1.5,6.2-2.5,9.2
	c-5.6,16-10.9,32.2-17.1,48c-3,7.6-7.1,14.4,3,20.8c-10,7.9-19,15-29.1,23c0-13.7,0-26,0-39.3c11.3,4.3,13.7-4.2,16.3-11.4
	c10-28.2,19.7-56.5,29.5-84.8c0.7-1.9,1.4-3.9,2.7-7.7C888.4,648.5,892.1,666,896.2,685.8z"/>
<path class="st0" d="M184.5,683.2c3.6-17.3,7.3-34.5,11.4-54.2c1.5,4.3,2.3,6.5,3.1,8.7c10.1,28.8,20.1,57.5,30.2,86.3
	c2.4,6.9,5.5,12.6,15.2,8.6c0,13.3,0,25.7,0,39.5c-9.9-7.7-18.9-14.7-29-22.6c10.7-7.1,5-14.7,1.9-22.7
	c-6.8-18.1-13.1-36.5-19.8-55.6c-2.9,14-5.7,27.9-9,44.2c-21.1-36.7-35.3-73-40.5-112.9c1.3-0.5,2.5-1.1,3.7-1.5
	c1.3-0.4,2.6-0.5,5.1-1C161.9,629,168.5,657.3,184.5,683.2z"/>
<path class="st0" d="M639.9,150.3c6.7-0.6,8.1,2.4,6.9,7.9c-2.1,10.1-3.8,20.3-4.1,31c5.3-8.6,10.5-17.4,16.1-25.8
	c1.2-1.8,3.8-2.6,5.8-3.9c1.1,2.3,3.4,4.8,3.2,7c-0.5,7.7-1.8,15.4-1.5,23.6c5.4-7.9,10.8-15.7,16-23.7c3.4-5.3,7-6.3,10.6-2.3
	c-9.1,15.2-17.7,30-26.8,44.6c-1.3,2.1-4.3,3.1-6.5,4.6c-0.8-2.5-2.3-5-2.1-7.4c0.7-10.7,2-21.4,1.2-33.2
	c-4.2,7.5-8.5,14.9-12.6,22.4c-1.9,3.5-3.1,7.6-5.5,10.8c-1,1.4-4.2,2.2-6.1,1.8c-1.2-0.2-2.8-3.3-2.5-4.9
	C634.4,185.5,637.2,168.2,639.9,150.3z"/>
<path class="st0" d="M458,195c-11.2,3.1-17.4-9.2-27.8-10.6c-6.5,7.1-0.3,14.6,0.8,22.8c-2.4,0.5-4.9,1-8,1.6
	c-4.7-19-9.2-37.3-13.9-56.2c2.7-0.6,5.1-1.2,7.6-1.8c2,9.1,3.9,17.4,5.8,25.8c0.5,0.2,1.1,0.3,1.6,0.5c3-8.6,6.2-17.2,9.1-25.8
	c1.5-4.5,3.5-7.4,9.1-4.1c-2.7,7.5-5.3,15-8.3,22.4c-1.7,4.4-0.5,7.2,3.4,9.4c7.2,4.2,14.3,8.6,21.4,12.9
	C458.6,192.8,458.3,193.9,458,195z"/>
<path class="st0" d="M598.7,937c8.8,0,18.4,3.9,25.1-4.4c3.4-4.3,4.9-10.1,7.2-15.2c-0.7-0.4-1.5-0.9-2.2-1.3
	c-2.2,1.4-4.4,2.9-6.7,4.1c-7.6,4.1-15.2,3.3-22.3-1.3c-6.6-4.3-6.9-11.1-6.1-18.1c0.3-2.7,0.9-5.3,1.7-7.9
	c4-13.3,17.8-17.2,28.1-7.7c9.4,8.7,14,20,13.4,32.7C636,936.1,614.2,947.1,598.7,937z M612.4,885.4c-6.8-0.1-11.3,6.9-11.8,16.7
	c-0.3,6.8,1,13.2,7.7,16.4c6.9,3.3,12-1.3,16-5.9c1.9-2.1,3-6.4,2.2-9C624,895.7,620.4,888.1,612.4,885.4z"/>
<path class="st0" d="M478.4,937c9.1,1.7,18,9.4,27.2,1.9c3.9-3.1,6.4-8,9.8-12.3c-7.9,0-14.3,1.2-20.2-0.3
	c-11.3-2.8-15.2-11.3-12-22.5c4.5-15.3,13.1-21.3,24.8-17.4c1.3,0.4,2.6,0.9,3.7,1.6c11.2,6.9,15.1,34.9,6.6,46.8
	C509.8,947,491.4,948.4,478.4,937z M489.1,911.5c0.2,8,4.7,13.2,11.3,12.9c8-0.3,15.1-6.2,15-12.3c-0.3-11.8-5.7-21.4-12-21.5
	C496.9,890.4,488.9,902,489.1,911.5z"/>
<path class="st0" d="M553.3,941.2c9,0,16.2,0,23.5,0c0.1,0.7,0.2,1.4,0.2,2.1c-8.5,1.5-16.9,3.5-25.5,4.2c-5.8,0.5-7.8-4-4.4-9.4
	c5.5-8.6,11.8-16.7,17.2-25.5c2.7-4.5,4.9-9.7,5.7-14.9c1.1-6.6-3-9.5-9.5-7.5c-6.2,1.9-10.3,5.8-10.4,12.8
	c-0.1,2.4,0.3,4.9-0.2,7.3c-0.3,1.5-1.9,2.7-2.9,4.1c-1.2-1.2-3.1-2.1-3.6-3.5c-2.6-7.6,0.3-16.9,6.2-21.1c6.8-4.8,18.4-5,24.5-0.3
	c5.6,4.3,5.1,10.3,2.3,15.3c-5.3,9.3-11.6,18.1-17.4,27.2C557.2,934.6,555.7,937.3,553.3,941.2z"/>
<path class="st0" d="M225.1,358.3c-8.7-9.5-17.6-18.9-26.1-28.5c-1.4-1.6-1.3-4.4-1.9-6.6c2.4,0.8,5.5,0.8,6.9,2.4
	c11.7,12.6,23.2,25.5,34.8,38.5c-2.1,5.6-5.8,7-12,5.3c-15.6-4.3-31.3-8.1-47.5-12.2c1.7-5.4,2.6-9.4,10.3-6.5
	c11.3,4.1,23.2,6.5,34.9,9.6C224.7,359.6,224.9,358.9,225.1,358.3z"/>
<path class="st0" d="M279.7,295c-8.2-0.2-12.1-6-15.4-12.4c-2.4-4.8-2.8-9,2.7-12.6c2.4-1.6,3.6-5.1,5.4-7.7
	c1.3-1.9,2.7-3.8,5.3-5.7c-1.6,7.6,1.9,11.2,7.4,14.9c5.1,3.3,6.2,9.1,3.7,15.2c-1.1,2.8-1.6,5.8-2.9,10.7c7-4.8,11.7-8.8,17.1-11.5
	c2.9-1.4,6.9-0.5,10.5-0.7c-0.4,3.5,0.6,8.2-1.3,10.3c-5.8,6.6-12.5,12.5-19.3,18c-1.3,1.1-5-0.7-7.5-1.1
	C287.5,305.5,279.9,301.6,279.7,295z M272.7,271.1c-0.6,0.4-2.7,1.3-2.6,1.9c0.7,4,1,8.5,3.1,11.8c1.5,2.4,5.4,3.7,8.5,4.6
	c0.9,0.2,3.4-2.5,3.9-4.3C286.8,280.9,277.7,270.8,272.7,271.1z M291.7,309.5c9.2-2,16.9-11.2,15.9-19.1
	C293.3,293.7,288.1,299.9,291.7,309.5z"/>
<path class="st0" d="M390.8,226.6c-12.7,5.1-17.4,4.6-21.8-4c-7.1-13.8-5-23.4,7-29.1c-2.6-5.4-5.1-10.9-8.2-17.4
	c3.2-0.9,5.8-1.6,7.9-2.2c7.4,16,14.5,31.1,21.5,46.3c0.9,1.9,0.7,4.3,1,6.4C395.7,226.6,393.3,226.6,390.8,226.6z M370.6,205.8
	c2,5.9,3.2,11.2,5.7,15.7c1,1.8,6.2,3.5,7.5,2.5c2-1.5,3.7-5.6,3.1-8.1c-0.9-4.3-3.4-8.4-5.8-12.3c-1.3-2-3.8-3.1-5.8-4.6
	C373.8,201.3,372.3,203.5,370.6,205.8z"/>
<path class="st0" d="M888.7,343.7c-8.5,4.5-16.3,8.6-25,13.1c19.4,6.8,19.4,6.8,20.2,9.8c-6.8-0.5-14.9-3.6-20-0.9
	c-4.6,2.5-6,11.2-8.7,17.2c-4.3-2.1-4.3-2.1-0.5-20.4c-2.3,1.2-4.1,2.1-5.8,3c-1.7,0.9-3.3,1.8-5.2,2.9c-4.8-3.4-4.3-5.8,0.7-8.5
	c13-7.1,25.9-14.5,40.1-22.5C885.4,338.8,887,341.2,888.7,343.7z"/>
<path class="st0" d="M826,258.1c7.7,11.1-6.3,12-7.4,18.6c8.3,10.9,6.2,21.3-6.9,27.2c-3.3,1.5-8.6,0.3-12.5-1.2
	c-4.3-1.6-7.9-4.8-12.1-7.6C800.4,282.5,812.7,270.9,826,258.1z M796.1,295.9c7.9,5.6,13.9,3.6,20.5-6c1.4-2,1.2-5.1,1.7-7.7
	c-2.7,0.4-6-0.2-8,1.2C805.5,286.9,801.2,291.3,796.1,295.9z"/>
<path class="st0" d="M575.9,193.4c-2.3,0-4.3,0-6.3,0c-0.3-1.1-0.8-1.9-0.7-2.6c0.7-5.9,2.1-11.8,1.9-17.7c-0.1-3.1-2.3-8.1-4.5-8.7
	c-5.1-1.3-7.6,2.8-8.1,7.7c-0.4,4.6-0.7,9.2-0.8,13.8c-0.2,5.8-2.3,8.1-8.2,5c2.1-16.8,4.3-33.6,6.5-51c3.2,0.6,5.7,1.1,8.6,1.6
	c-1.9,6.1-3.5,11.6-5.1,16.7c1.2,1,1.6,1.5,2,1.6c17.5,4.1,17.9,4.7,15.5,22.3C576.2,185.7,576.2,189.5,575.9,193.4z"/>
<path class="st0" d="M277.4,236.6c2.7-1.6,5.1-3,7.8-4.5c2.7,5.9,5,10.9,7.1,15.6c1.2,0.2,1.9,0.6,2.2,0.4c16-9.1,16.5-9,27.2,6
	c2.2,3,4.3,6.1,6.6,9.2c-2.8,4.3-5.2,5.5-8.3,0.4c-2.8-4.6-5.7-9.2-9.4-13.1c-1.9-2-6.5-3.7-8.4-2.8c-4.1,2.1-4.5,6.4-1.5,10.3
	c4,5.4,8.2,10.7,12.8,16.7c-1.9,1.7-3.8,3.3-5.8,5C297.5,265.4,287.8,251.6,277.4,236.6z"/>
<path class="st0" d="M245.7,294.8c2.8-2.2,4.7-3.8,6.1-4.9c9.2,7.8,17.8,15,26.7,22.5c0-0.1,0.2,0.7,0,0.9
	c-6.1,4.4-12.1,9.1-18.5,12.9c-1.7,1-5.6,0.2-7.4-1.1c-6.2-4.6-12-9.8-18.3-15.1c1.6-2.3,3-4.2,4.5-6.4c5.4,5.1,10.1,10.2,15.6,14.3
	c2.1,1.6,7.3,2.3,8.8,0.9c3.5-3.2,3.4-7.5-1.2-10.9C256.6,303.9,251.6,299.6,245.7,294.8z"/>
<path class="st0" d="M501.7,174.1c0-1.9,0.4-3.4-0.1-4.5c-1.6-3.4-3.6-6.5-5.5-9.8c-1.4,3-2.8,6.1-4.3,9.1c-0.8,1.4-1.9,2.6-2.9,3.9
	c-1.3-1.1-3.5-2.2-3.6-3.4c-0.6-5.2-0.7-10.7,5.6-12.7c7.2-2.3,15.7,1.1,16.7,7.1c1.5,8.8,2.5,17.7,3.1,26.5c0.1,1-3.7,3.2-5.7,3.1
	c-3.2-0.1-6.5-1.3-9.6-2.4c-3.5-1.3-6.8-3.1-10.2-4.6c2.5-3.4,4.5-7.4,7.6-10.1C494.7,174.5,498.3,174.8,501.7,174.1z M491.3,184.3
	c0.4,0.8,0.8,1.5,1.3,2.3c10.2,2.2,12.1,0.7,9.2-8.7C498,180.2,494.7,182.2,491.3,184.3z"/>
<path class="st0" d="M823.4,336.5c-4.3-5.2-8.4-8.2-9.5-12.1c-1.2-4-0.9-10,1.5-12.9c3.5-4.4,9.1-7.4,14.3-9.9
	c4-1.9,9.1-4.4,12.9,1.4c3.7,5.8,6.4,12,0.8,17.6C837.9,326,831.3,330.3,823.4,336.5z M819,327.2c1.2,0.4,2.4,0.8,3.6,1.2
	c6.1-5,12.2-9.8,18-15c0.8-0.7,0.5-3.9-0.4-5c-1-1.1-3.9-1.9-5-1.2c-6,3.8-12,7.8-17.4,12.4C816.7,320.5,818.5,324.6,819,327.2z"/>
<path class="st0" d="M450,938.3c-6.3-0.4-7.8-3.1-6.1-9.1c3.2-10.8,5.6-21.8,8.5-33.2c-2.1-0.3-3.8-0.6-5.7-0.9
	c0.2-0.8,0.2-1.7,0.6-2.2c2.6-3.4,5.1-6.9,8.1-10c1.4-1.5,3.6-2.2,5.4-3.3c0.7,2.4,2.5,4.9,2,7c-2.6,11.3-5.7,22.4-8.6,33.6
	C452.7,926.2,451.4,932.2,450,938.3z"/>
<path class="st0" d="M334.5,245.9c5.5,5.6,5.5,5.6,17.7-5.9c0.9,6.2-0.6,8.3-8.2,13c-4.4,2.7-9.3,3.9-12.2-0.6
	c-4.6-7.1-8.3-14.8-11.3-22.7c-0.6-1.6,3.2-6.1,5.8-7.3c2.9-1.3,7.8-1.7,10.1,0c4.3,3.2,7.4,8.1,11.5,12.8
	C342.8,239.4,338.7,242.6,334.5,245.9z M330.3,242.4c1.1,0.3,2.2,0.6,3.3,0.9c2.1-2.7,6.4-5.9,5.9-8.1c-1.1-5-4.1-9.8-12.6-10.8
	C328.1,231.1,329.2,236.7,330.3,242.4z"/>
<path class="st0" d="M689.3,214.2c-2.9,16.1,11,8.2,16.7,13c-7.4,4.3-13.1,1.4-18.8-2c-5.3-3.2-5.7-8.1-3.5-12.6
	c2.9-6,6.4-11.8,10.8-16.7c1.8-1.9,7.2-2.5,9.8-1.2c3,1.5,6.4,5.5,6.6,8.6c0.3,4.2-1.6,9-3.6,12.9c-0.8,1.5-4.6,2.4-6.8,2
	C696.9,217.6,693.5,215.8,689.3,214.2z M690.6,209.3c0.3,0.9,0.6,1.9,1,2.8c3.4,0.5,8.8,2.5,9.9,1.1c2.9-3.8,4-8.9,5.7-13.5
	c-1.2-0.8-2.4-1.6-3.6-2.4C699.2,201.3,694.9,205.3,690.6,209.3z"/>
<path class="st0" d="M759.1,256.4c-6.8,14.4,7.7,11.1,12.4,16.3c-9.4,2.8-15.1-2.6-18.4-8.4c-1.8-3.1,0.6-9.7,2.9-13.7
	c2.3-3.9,6.9-6.6,10.6-9.7c4.3-3.5,8.3-4.1,12.8,0.2c4.4,4.2,5.5,8.4,2.6,13.6c-0.8,1.4-1.9,2.7-2.6,4.1c-3.6,6.9-7.9,8.1-13.6,2.2
	C764.1,259.4,761.9,258.3,759.1,256.4z M761.2,252.2c8.1,10.8,11.4,7.4,16.9-2.4c0.6-1.1,0.6-3.4-0.1-4.2c-0.8-0.9-3.2-1.4-4.3-0.8
	C769.6,246.9,765.7,249.5,761.2,252.2z"/>
<path class="st0" d="M731.9,211.5c-2.9,2.4-6.8,4.3-8.4,7.4c-1.2,2.4-0.2,6.6,1,9.4c1.6,3.9,8.2,7.2,3.3,11.4
	c-2.1,1.8-8.4-0.2-12.3-1.7c-3.4-1.3-6.3-4.3-9.3-6.5c0.6-0.8,1.1-1.7,1.7-2.5c2,1.3,4,2.7,6.1,4c2.3,1.5,4.7,2.9,7.1,4.4
	c0.6-0.5,1.2-1,1.7-1.5c-1.1-2.1-2.1-4.3-3.5-6.2c-5.9-8-3.4-18.7,5.5-23c7.1-3.4,11.1,2.5,13.7,6.6c1.6,2.4-1.4,7.9-2.7,11.9
	c-0.2,0.5-2.9,0.9-3.4,0.3c-0.9-1-1.7-2.9-1.4-4.1c0.7-2.7,2.1-5.1,3.2-7.6C733.5,213,732.7,212.3,731.9,211.5z"/>
<path class="st0" d="M543.2,184.2c-4,6.3-10.1,7-16.7,5.3c-6.3-1.6-8.3-6.5-8.2-12.4c0.1-4.3,0.6-8.6,1-12.9
	c0.6-7.3,4.3-10.5,11.8-9.3c7.4,1.2,10.9,5.1,10.2,12.8c-0.1,1.6-2,3-3.1,4.5c-1.2-1.2-3-2.3-3.4-3.7c-0.9-2.9-1-6.1-1.4-9.5
	c-8.2,3.7-11.6,22.3-5.6,26.7c1.6,1.2,5,0.6,7.3,0c2.4-0.6,4.5-2.3,6.7-3.6C542.4,182.9,542.8,183.5,543.2,184.2z"/>
<path class="st0" d="M761.8,212.2c1.3,1.2,3.1,2.7,5.2,4.5c-2.2,2.6-4.1,4.7-6,6.9c2,2.4,3.8,4.6,5.6,6.8c-0.4,0.5-0.8,1-1.3,1.5
	c-2.3-1-4.6-1.9-8-3.3c-5.5,7.7-11.2,15.6-16.9,23.7c-5.3-1.8-6.6-4.1-2.8-8.7c3.3-3.9,6.2-8.2,8.7-12.7c1.7-3.2,2.4-7,3.4-10
	C753.4,218.3,757.3,215.4,761.8,212.2z"/>
<path class="st0" d="M593.9,147.7c2,0.4,4.2,0.9,6.8,1.5c-0.7,3.3-1.3,6.1-2,9.3c2.8,1.1,5.3,2,7.8,3c0,0.5,0,1.1,0,1.6
	c-2.6,0.4-5.3,0.9-8.8,1.5c-1,7.7-2.3,15.6-3,23.6c-0.4,5.6-2.7,6.3-6.9,4.2c-2.2-10.7,6.3-21.5-0.3-30.6
	C589.5,157.3,591.5,153,593.9,147.7z"/>
<path class="st0" d="M210.9,314.7c2.3-2.1,4.1-3.8,5.6-5.1c13,10.1,25.5,19.8,38.4,29.9c-1.6,1.7-3.1,3.4-4.6,5
	C237,334.5,224.2,324.8,210.9,314.7z"/>
<path class="st0" d="M797.1,255c7.5,6.1,1.8,14.1,5.2,20.4c-0.8,0.3-1.6,0.7-2.4,1c-1.6-2.3-3.1-4.6-5.9-8.6
	c-4.8,6.3-9.6,12.6-14.4,18.9c-6.7-4.3-8.8-6.5-3.7-11C783.1,269.4,789.5,262.5,797.1,255z"/>
<path class="st0" d="M830.9,349.9c-1.2-2.4-2.1-4.2-3.3-6.5c10.1-6,19.9-11.9,30.1-18c7.2,6.9-2.9,13.5,1,20.2c-1,0.3-2,0.5-3,0.8
	c-1.2-2.5-2.4-5-4.4-9C845,341.3,838.4,345.4,830.9,349.9z"/>
<path class="st0" d="M468.8,173.5c1.2,8.2,2.2,15.8,3.3,23.7c-4.1,1.7-7.3,2.3-7.9-3.5c-1.1-9.9-2.2-19.7-3.4-30.1
	c9.4-3.4,11.4,7.5,18.6,8c-0.3,0.9-0.5,1.8-0.8,2.7C476.1,174.1,473.6,173.9,468.8,173.5z"/>
<path class="st0" d="M344.9,209.9c2.4-1.1,4.7-2.2,7.1-3.3c4.1,9,7.8,17.6,12.1,25.9c2.9,5.5,0.2,6.5-4.2,7.1
	C354.9,229.7,350.1,220.1,344.9,209.9z"/>
<path class="st0" d="M350.7,199.3c-2.8,2.1-4.5,4.4-6,4.2c-1.7-0.1-4.6-2.9-4.4-3.8c0.6-2,2.5-4.4,4.4-5.1
	C345.6,194.2,347.9,197,350.7,199.3z"/>
<path class="st1" d="M788.4,733.6c0.9-8.9,1.8-16.9,2.5-24.8c5.7-61.7,19.8-121.6,39.9-180.1c1.9-5.6,4.4-11.1,7.4-16.2
	c4.4-7.4,4.2-8.7-4.1-11.8c-1.4-0.5-3-0.9-2.6-0.8c-1.8,5.5-3,10.4-4.9,15.1c-3.3,8.2-7.7,16.1-10.4,24.5
	c-18.6,57.5-32.1,116.2-37,176.6c-0.8,10-1.9,19.9-3.6,29.8c-0.6,3.8-3.1,7.3-4.7,11c-0.9-0.3-1.8-0.6-2.7-0.8
	c1-9.7,2.2-19.4,3.1-29.1c5.8-64.3,18.3-127.3,38.8-188.6c3.3-9.9,8.7-19,12.7-28.7c0.7-1.8-0.2-5.8-1.7-6.8
	c-13.5-9.2-30.3-3.3-34.2,12.3c-13.8,55-27.3,110.1-40.5,163.8c-1.1-6.7-2.8-15.5-3.9-24.3c-4.1-33.3-8.3-66.6-12-99.9
	c-0.8-7.5-3.7-11.4-11.3-11.5c-4.3,0-9-1-12.8,0.4c-3.2,1.1-7,4.7-7.7,7.8c-7.2,35.5-14.5,71-20.4,106.7
	c-3.7,22.6-5.1,45.6-7.5,68.5c-0.2,2.3-0.4,4.7-2.2,7.2c-0.5-2.7-1.1-5.4-1.4-8.1c-6.5-53.4-13-106.8-19.4-160.2
	c-0.3-2.1-0.5-4.3-1-6.4c-3.1-12-5.6-13.8-17.7-11.5c-5.9,1.2-11.7,3.2-15.8,4.4c4.1,25.4,7.7,49.1,11.7,72.7
	c8.3,49,16.9,98,25.3,147c1.2,7.2,2.8,14.3,3.8,21.5c1,7.2,3.4,12.5,11.8,12.6c10.5,0.1,18.4-4.9,19.2-13.5
	c1.3-13.5,2.1-27,2.4-40.5c0.9-51.1,10-101.1,19.1-151.1c0.2-1.3,0.9-2.4,1.5-4c11.5,57.8,22.9,115.1,34.6,174.4
	c6.4-2.2,12.9-4.5,19.5-6.8c-1.1,1.2-2.3,2.8-3.7,4.2c-5,5-10.1,10.8-18.1,7.8c-7.3-2.7-4.9-10.1-6-15.6c-4.9-24-9.6-48.1-14.3-72
	c-7-1.3-7.9,2.5-8.3,6.8c-1.2,15.1-2.6,30.2-3.6,45.3c-0.9,15.1-1.3,30.3-2.1,45.4c-0.8,14.7-5.3,19.6-19.7,22
	c-4.8,0.8-9.5,2.1-14.3,3c-14.6,2.8-22.1-2.6-24.5-17.2c-1.6-10.3-3.6-20.5-5.9-33.3c-6.5,10.9-11.6,19.6-16.7,28.1
	c10.1,12.5,10.3,13.7,4,24.2c14,4.2,27.9,8.5,43,13.1c-44.4,35.9-192.5,41.9-241.7,10.2c7.4,0,13.5-0.7,19.5,0.2
	c8.6,1.2,10.5-0.7,9.6-10.1c-1.5-15.8-2.5-31.6-3.5-47.4c-0.3-5.1,0.4-10.3,0.2-15.4c-0.3-7.6,1.6-14.2,6.1-20.4
	c6.5-8.9,12.3-18.3,18.8-28.2c12.2,11.8,23.9,23,35.4,34.4c19.6,19.4,39.2,38.9,58.7,58.4c11,11,30.5,7.8,36.4-6.8
	c1.3-3.2-1.2-9.5-3.9-12.4c-30.4-31.5-61.5-62.3-91.8-93.9c-11.3-11.8-11.4-14.3-2-28.4c20.6-30.8,42.1-60.9,63.6-91.1
	c3.5-5,8.7-8.9,13.3-12.9c4.3-3.7,4-7.2-0.6-9.6c-8.9-4.5-18.1-8.5-27.3-12.4c-5.8-2.4-8.3,2.3-10.8,6.1
	c-23.3,34.6-46.5,69.1-69.7,103.7c-8.8,13.2-17.6,26.4-27.8,41.8c0-6.3-0.1-10.2,0-14c1.4-37.3,2.6-74.6,4.4-111.9
	c0.2-4.3,2.6-9,5.2-12.5c3.9-5.2,4-9.8-2.3-11c-12.6-2.2-25.6-3.1-38.5-3.6c-4.7-0.2-6.2,4.1-6,8.8c0.6,19.7,1.6,39.4,1.4,59.1
	c-0.4,43.5-1.3,87.1-2.1,130.6c-0.6,28.7-1.5,57.3-2.3,86c-0.1,2.1,0.2,4.2,0.3,6.4c-6.1-1-6.4-1-6.2-7.3
	c0.5-24.9,1.3-49.7,1.8-74.6c0.3-15.1,0-30.2,0-45.2c-0.6,0.1-1.4,0-1.6,0.2c-4.6,9.2-12.1,9.3-21.1,7.8c-13-2.2-26.2-3.2-41.1-4.9
	c-3.6,18.3-7.2,36.3-10.4,54.2c-1.1,6.2-2.7,11.4-9.5,11.9c2.2-4.2,5.4-8.1,6.5-12.6c6.9-26.9,11.8-54.4,20.1-80.9
	c16.5-52.6,34.7-104.6,52.3-156.9c4.3-12.7,4.2-13-5.7-16.1c-7.4,21-15.3,41.9-22.1,63.2c-16.2,51-31.9,102.1-47.4,153.4
	c-3,10-3.9,20.7-5.8,31c-0.3,1.8-0.3,4-1.4,5.4c-1.6,2.1-4,3.7-6,5.5c0-2.4-0.2-4.8,0.1-7.2c1-6.9,1.5-14,3.4-20.7
	c10.7-37.4,21-74.9,32.7-112c12.3-38.9,25.8-77.4,39.1-116c2.2-6.4,0.5-10-5.4-11.6c-8.2-2.2-16.6-3.7-23.3-5.1
	c-10.6,32.5-21.2,63.5-30.7,94.8c-9.5,31.6-17.8,63.5-26.6,95.3c-2.1,7.6-4.1,15.2-8,22.6c-0.8-18.2-1.2-36.5-2.4-54.7
	c-3-48.9-6.1-97.7-9.7-146.5c-0.7-9.6-4.2-18.9-6-28.4c-0.4-2.3-0.4-5.6,0.9-7c5-5.6,1.3-7.7-3.3-9c-13-3.6-26.1-6.7-39.7-4.1
	c-1,0.2-2,0.2-4.4-1.4c1.8-1.6,3.3-4.2,5.3-4.6c15.9-3.1,31.3-0.4,45.6,6.6c5.9,2.9,10.5,8.6,15,13.6c1.2,1.3,1.2,5.9,0,6.9
	c-4.1,3.3-2.2,6.3-1.3,10c2.7,11.3,4.8,22.7,7.4,34.9c3.7-4.8,7.5-9.2,10.7-14.1c2.7-4.2,6-4.8,10.4-3.6c8.1,2.1,16.2,4,26,6.5
	c0.6-6.9,1.1-13,1.7-20c-9-2.5-17.8-5.1-26.6-7.1c-4.7-1-6.7-3-7.3-7.9c-3-22.8-6.3-45.5-9.7-68.3c-0.7-4.5,0.4-7.5,4.4-10.2
	c37.7-25.4,70.8-55.9,100.3-90.5c2.9-3.4,5.5-4,9.7-2.9c23.9,5.7,47.9,11.3,71.9,16.5c5.1,1.1,7.2,3.1,7.4,8.5
	c0.4,9.4,1.6,18.8,2.6,29.2c-13,2.3-25.7,4.6-38.4,6.4c-1.6,0.2-4.6-1.7-5.3-3.4c-7.2-17.1-20.5-21-37.6-19.1
	c-21.8,2.4-24.2,4.2-24.1,26.1c0.1,20.8,4,40.8,15,59c4.5,7.5,10.5,10.5,19,8.6c4.7-1.1,9.6-1.8,14.2-3.2c17.4-5.2,20.9-10,22-28.1
	c0.1-2.1,1.8-5.6,3.3-5.9c11.3-2.6,22.7-4.5,34.1-6.6c3.1,7.9,2.7,13-4.8,17.7c-37.5,23.4-70,52.5-97.3,87.4
	c-1.8,2.3-3.8,4.5-5.7,6.7c10.8,6.4,12.2,7.1,7.3,17.4c-7.9,16.3-2,30.9,4.3,45.9c-0.4-4.5-0.5-9-1.3-13.5
	c-2.2-12.1,2-19.3,14.1-19.2c16.2,0,33.3-2.4,47,10.2c2,1.9,5.6,1.9,8.2,3.2c7.5,3.7,8,9.2,2.6,15.6c-2.5,2.9-4.7,7.2-4.8,10.9
	c-0.4,23.8-0.2,47.5-0.2,71.4c1-1.3,2.6-3.4,4.1-5.6c21.3-31.6,42.5-63.3,63.9-94.9c7.4-11,10-12,22.2-6.9
	c11.6,4.9,22.9,10.7,34.8,16.4c7.2-9.5,18.6-11.9,29.7-11.7c10.4,0.2,20.8,4,32.6,6.4c1.7-13.6,3.9-29.1,5.4-44.8
	c0.5-5,2.2-7.7,6.8-9.4c20.9-8.1,41.8-16.3,62.6-24.8c5.1-2.1,8.1-1.3,11.7,2.8c9.7,11.2,20,21.9,30.1,32.9
	c9.4-10.6,20.3-12.9,33.1-9.3c6.9,2,14.2,3,21.4,3.8c1.5,0.2,3.6-1.8,4.9-3.2c3.1-3.2,6-6.6,9.3-10.3
	C875.8,542.1,838,690.7,788.4,733.6z M622.3,666.7c0.6-0.4,1.2-0.8,1.8-1.3c-4.5-31.3-8.9-62.6-13.4-93.8c-1-0.2-2-0.4-3-0.5
	c-27.1,29.1-48.4,62.6-69.3,97.2c23.5-1.3,46.3-3.8,68.9-7C613.5,660.4,618.9,659.4,622.3,666.7z M602.5,556.3
	c-3,4.2-5.3,7.9-8.1,11.1c-2.7,3-6.6,5-8.9,8.2c-22.4,31.7-44.6,63.6-67,95.4c-5.6,7.9-3.7,14,2.6,20.5c16.5,17.1,32.3,34.9,48.8,52
	c12.4,12.9,25.5,25.2,38.3,37.7c-2.6-4.8-6.4-8.4-10-12.2c-22.6-24-45.1-48-67.7-72c-5.8-6.2-6.5-12.5-1.9-19.7
	c11-17,21.1-34.6,32.9-51c13.3-18.6,27.6-36.6,42.2-54.2C609.9,564.6,610.3,560.9,602.5,556.3z M707.9,632.5
	c-0.5,1.4-1.4,2.8-1.6,4.3c-4.1,34-8.4,67.9-12.1,102c-2.4,22,0.7,44.5-6.4,66.1c11.6-2.2,14.5-5.8,15.2-17.1
	c1.9-31,3.7-61.9,6.2-92.9C710.8,674.2,716.2,653.5,707.9,632.5z M303.3,664c1,0.1,2,0.2,3,0.2c1.1-11.4,3.4-22.9,3.2-34.3
	c-0.4-23.2-1.5-46.5-3.5-69.7c-2-22.9-5.1-45.6-8.3-68.4c-1-7.3-7.3-14.3,3.6-21.9c-5.5-1.3-8.8-3.1-11.1-2.2
	c-1.6,0.6-3.1,5-2.6,7.3c8.8,41.5,10.4,83.6,12.7,125.8C301.5,621.9,302.3,642.9,303.3,664z M476.1,815.1c30.5-2,60.5-3.9,93.3-6.1
	c-7.7-6-13.8-14.8-19.9-14.7c-24.4,0.1-48.8,3-73.4,4.8C476.1,805.6,476.1,810.1,476.1,815.1z M651.5,546.9
	c5,45.8,9.9,90.5,14.8,135.2c0.8,0,1.5-0.1,2.3-0.1c1.5-12.8,4.5-25.7,4.1-38.5c-0.6-19.7-3.6-39.3-5.7-58.9
	c-1-9.1-1.8-18.3-3.5-27.3C662.2,550.6,659,544.8,651.5,546.9z M461.9,666.7c6.2-7,12.4-13.4,12.3-24c-0.1-24.5,1.2-49.1,2.3-73.6
	c0.1-2.9,2.2-5.7,3.6-8.5c1.4-2.7,5-6.3,4.2-7.7c-1.6-3-5.4-4.8-7.7-6.6c-3.8,5.1-6.7,8.8-9.4,12.8c-1.1,1.7-2.1,3.8-2.2,5.7
	C463.9,598.8,462.9,632.7,461.9,666.7z M481.6,725.2c-6.3,10.1-16.4,19.4-17.7,29.8c-2.6,20.7-0.5,41.9,0,62.9
	c0.2,7.6,1.3,15.1,2.1,24c2.1,0,7.5,1.5,9.1-0.4c2.1-2.3,1.6-7.5,1.3-11.3c-0.9-11.2-3.7-22.4-3.2-33.5c0.8-19.2-4-39.9,11.9-56
	C491.2,734.8,490.4,729.7,481.6,725.2z M735.3,543.6c4.1,33.5,8.1,66.7,12.2,99.9c0.9,0.1,1.8,0.2,2.8,0.3c1.5-11.7,4.6-23.5,4-35.1
	c-1-18.8-4.9-37.4-6.9-56.1C746.6,545.1,742.8,543.2,735.3,543.6z M598.3,819.1c2.9,1.5,4.2,2.5,5.7,2.8c6.7,1.1,24.1-9.1,25.6-15.7
	c0.7-2.9-0.4-7-2.1-9.5c-2.1-3.1-5.8-5.1-11-9.3C623.8,806.7,610.3,811.7,598.3,819.1z"/>
<path class="st1" d="M536.2,385.9c15.8-1.8,31.9-3.6,47.9-5.2c1.4-0.1,3.1,1.5,4.4,2.6c0.7,0.6,0.9,2,1.4,2.9
	c14.4,25.8,22.2,27.5,51.1,19.7c3.3-0.9,7.3-5.2,8.2-8.7c6-22.9,4.7-45.5-4.9-67.3c-4.9-11.1-12.4-17-25.7-16.6
	c-26.7,0.9-31.3,4.2-35.9,30.9c-0.1,0.8-0.4,1.5-0.8,3c-16.1,1.8-32.3,3.6-49.9,5.5c-1-10.9-2.3-21.5-2.8-32.2
	c-0.1-1.8,2.6-4.6,4.6-5.6c22.4-10.8,44.8-21.5,67.4-31.8c2.5-1.1,7.1-0.7,9.2,1c36.1,28.5,75.6,51,117.6,69.6
	c2.3,1,4.8,4.5,5.1,7.1c2.6,25.3,4.8,50.6,6.7,75.9c0.2,2.3-2.2,6.1-4.4,7.1c-22.6,9.6-45.4,18.9-68.3,27.8c-2.4,0.9-6.9-0.1-9-1.9
	c-35.1-29.5-73.8-52.8-116.7-68.9C535.3,398.5,534.9,397.2,536.2,385.9z"/>
<path class="st1" d="M803.5,366.4c-2.1-0.4-4-0.4-5.6-1c-63.6-23.9-124.6-52.9-178.2-95.1c-14.5-11.4-26-26.4-38.8-39.9
	c-1.2-1.3-1.7-3.2-2.7-5C640.1,219.1,771.6,301.4,803.5,366.4z"/>
<path class="st1" d="M452.6,236.6c-10.3,12.8-19.6,25-29.6,36.5c-35.4,41-73.2,79.8-118.3,110.3c-13.3,9-28.4,15.5-42.8,22.9
	c-2.7,1.4-6,1.7-9.5,2.7C267.8,346.4,394.2,236.9,452.6,236.6z"/>
<path class="st1" d="M224.8,513.3c7.9,13.3,15.7,26.7,23.6,40c0.6-0.1,1.2-0.3,1.8-0.4c-3-13-5.7-26.2-9.1-39.1
	c-2.9-11-6.9-21.6-9.9-32.5c-1.3-4.6-1.1-9.6-1.6-14.4c0.9-0.2,1.9-0.5,2.8-0.7c0.9,2.5,1.8,5,2.8,7.5c15.1,39.4,21.2,80.7,26,122.4
	c4.2,36.5,9.7,72.8,14.6,109.2c0.3,2.1,0.2,4.3,0.3,6.7C245.3,688.5,215.5,577.1,224.8,513.3z"/>
<path class="st1" d="M600.4,325c9.3,8.7,14.8,27.2,13.8,46.3C610,357,605.1,340.8,600.4,325z"/>
<path class="st1" d="M612.4,885.4c8,2.7,11.6,10.2,14.1,18.2c0.8,2.6-0.3,6.9-2.2,9c-4.1,4.6-9.1,9.2-16,5.9
	c-6.7-3.2-8-9.6-7.7-16.4C601.1,892.3,605.6,885.3,612.4,885.4z"/>
<path class="st1" d="M489.1,911.5c-0.2-9.5,7.7-21.1,14.3-20.9c6.3,0.2,11.6,9.8,12,21.5c0.2,6.1-6.9,12-15,12.3
	C493.8,924.7,489.3,919.5,489.1,911.5z"/>
<path class="st1" d="M272.7,271.1c4.9-0.3,14,9.8,12.8,14c-0.5,1.7-3,4.5-3.9,4.3c-3.1-0.9-6.9-2.2-8.5-4.6
	c-2.1-3.3-2.4-7.8-3.1-11.8C270,272.4,272.1,271.5,272.7,271.1z"/>
<path class="st1" d="M291.7,309.5c-3.5-9.6,1.6-15.8,15.9-19.1C308.6,298.3,300.9,307.5,291.7,309.5z"/>
<path class="st1" d="M370.6,205.8c1.7-2.3,3.2-4.5,4.8-6.7c2,1.5,4.6,2.6,5.8,4.6c2.4,3.8,4.8,7.9,5.8,12.3c0.5,2.5-1.1,6.6-3.1,8.1
	c-1.3,1-6.5-0.7-7.5-2.5C373.8,217,372.6,211.7,370.6,205.8z"/>
<path class="st1" d="M796.1,295.9c5.1-4.6,9.4-9,14.3-12.5c2-1.4,5.3-0.9,8-1.2c-0.5,2.6-0.3,5.7-1.7,7.7
	C810,299.5,804.1,301.4,796.1,295.9z"/>
<path class="st1" d="M491.3,184.3c3.4-2.1,6.7-4.2,10.4-6.4c3,9.5,1,10.9-9.2,8.7C492.1,185.9,491.7,185.1,491.3,184.3z"/>
<path class="st1" d="M819,327.2c-0.5-2.6-2.2-6.7-1.2-7.6c5.4-4.6,11.4-8.6,17.4-12.4c1.1-0.7,4,0.1,5,1.2c0.9,1,1.2,4.2,0.4,5
	c-5.8,5.2-12,10-18,15C821.4,328,820.2,327.6,819,327.2z"/>
<path class="st1" d="M330.3,242.4c-1.1-5.6-2.2-11.3-3.4-17.9c8.5,1,11.5,5.8,12.6,10.8c0.5,2.2-3.8,5.3-5.9,8.1
	C332.5,243,331.4,242.7,330.3,242.4z"/>
<path class="st1" d="M690.6,209.3c4.3-4,8.6-7.9,13-11.9c1.2,0.8,2.4,1.6,3.6,2.4c-1.8,4.6-2.9,9.7-5.7,13.5c-1,1.3-6.4-0.7-9.9-1.1
	C691.2,211.2,690.9,210.2,690.6,209.3z"/>
<path class="st1" d="M761.2,252.2c4.4-2.7,8.3-5.3,12.5-7.5c1.1-0.6,3.4-0.1,4.3,0.8c0.7,0.8,0.7,3.1,0.1,4.2
	C772.7,259.6,769.3,263,761.2,252.2z"/>
<path class="st0" d="M622.3,666.7c-3.4-7.3-8.8-6.3-15-5.4c-22.7,3.2-45.5,5.7-68.9,7c20.9-34.7,42.2-68.1,69.3-97.2
	c1,0.2,2,0.4,3,0.5c4.5,31.3,8.9,62.6,13.4,93.8C623.4,665.9,622.9,666.3,622.3,666.7z"/>
<path class="st0" d="M602.5,556.3c7.8,4.6,7.4,8.3,1.2,15.7c-14.7,17.6-28.9,35.6-42.2,54.2c-11.7,16.5-21.9,34.1-32.9,51
	c-4.7,7.2-4,13.5,1.9,19.7c22.6,24,45.1,48,67.7,72c3.6,3.8,7.4,7.4,10,12.2c-12.8-12.6-25.9-24.8-38.3-37.7
	c-16.5-17.1-32.3-34.8-48.8-52c-6.3-6.5-8.2-12.6-2.6-20.5c22.4-31.8,44.5-63.7,67-95.4c2.3-3.2,6.2-5.2,8.9-8.2
	C597.2,564.2,599.4,560.5,602.5,556.3z"/>
<path class="st0" d="M707.9,632.5c8.3,20.9,2.9,41.7,1.2,62.5c-2.5,30.9-4.3,61.9-6.2,92.9c-0.7,11.3-3.6,14.8-15.2,17.1
	c7.1-21.6,4-44.1,6.4-66.1c3.7-34,8-68,12.1-102C706.6,635.4,707.4,634,707.9,632.5z"/>
<path class="st0" d="M303.3,664c-1-21-1.9-42.1-3-63.1c-2.3-42.1-3.9-84.3-12.7-125.8c-0.5-2.3,1-6.8,2.6-7.3
	c2.3-0.9,5.6,0.9,11.1,2.2c-10.9,7.6-4.7,14.7-3.6,21.9c3.2,22.7,6.4,45.5,8.3,68.4c2,23.2,3.1,46.4,3.5,69.7
	c0.2,11.4-2.1,22.8-3.2,34.3C305.3,664.1,304.3,664,303.3,664z"/>
<path class="st0" d="M476.1,815.1c0-5,0-9.5,0-16c24.6-1.9,49-4.7,73.4-4.8c6.1,0,12.2,8.7,19.9,14.7
	C536.6,811.2,506.6,813.1,476.1,815.1z"/>
<path class="st0" d="M651.5,546.9c7.5-2.1,10.7,3.7,12,10.4c1.8,9,2.6,18.2,3.5,27.3c2.1,19.6,5,39.2,5.7,58.9
	c0.4,12.8-2.6,25.7-4.1,38.5c-0.8,0-1.5,0.1-2.3,0.1C661.4,637.4,656.5,592.6,651.5,546.9z"/>
<path class="st0" d="M461.9,666.7c1-34,2-67.9,3.2-101.9c0.1-2,1.1-4.1,2.2-5.7c2.6-3.9,5.6-7.6,9.4-12.8c2.2,1.8,6,3.6,7.7,6.6
	c0.8,1.4-2.8,5-4.2,7.7c-1.4,2.7-3.5,5.6-3.6,8.5c-1.1,24.5-2.3,49.1-2.3,73.6C474.3,653.3,468.1,659.7,461.9,666.7z"/>
<path class="st0" d="M481.6,725.2c8.8,4.4,9.6,9.6,3.6,15.6c-15.9,16.1-11.1,36.8-11.9,56c-0.5,11.1,2.3,22.3,3.2,33.5
	c0.3,3.8,0.8,9-1.3,11.3c-1.7,1.9-7.1,0.4-9.1,0.4c-0.8-8.9-1.9-16.4-2.1-24c-0.5-21-2.6-42.3,0-62.9
	C465.2,744.7,475.3,735.4,481.6,725.2z"/>
<path class="st0" d="M735.3,543.6c7.5-0.4,11.3,1.5,12.1,9c2,18.7,5.8,37.3,6.9,56.1c0.6,11.6-2.5,23.4-4,35.1
	c-0.9-0.1-1.8-0.2-2.8-0.3C743.5,610.3,739.4,577.1,735.3,543.6z"/>
<path class="st0" d="M598.3,819.1c12-7.4,25.5-12.4,18.2-31.8c5.1,4.2,8.8,6.2,11,9.3c1.8,2.5,2.8,6.6,2.1,9.5
	c-1.5,6.6-18.9,16.9-25.6,15.7C602.5,821.6,601.2,820.5,598.3,819.1z"/>
</svg>
